<svg id="Layer_1" data-name="Layer 1" xmlns="http://www.w3.org/2000/svg" viewBox="0 0 18 19"><defs><style>.cls-1{fill:#ffffd0;}</style></defs><path class="cls-1" d="M8.5,19A1.5,1.5,0,1,0,10,20.5,1.5,1.5,0,0,0,8.5,19ZM19,16H7a1,1,0,0,1,0-2h8.49a3,3,0,0,0,2.89-2.18L20,6.27A1,1,0,0,0,19.27,5,.8.8,0,0,0,19,5H6.74A3,3,0,0,0,3.92,3H3A1,1,0,0,0,3,5h.92a1,1,0,0,1,1,.73L5,6.27H5L6.68,12A3,3,0,0,0,7,18H19a1,1,0,0,0,0-2ZM17.67,7l-1.22,4.27a1,1,0,0,1-1,.73H8.75l-.25-.89L7.33,7ZM16.5,19A1.5,1.5,0,1,0,18,20.5,1.5,1.5,0,0,0,16.5,19Z" transform="translate(-2 -3)"/></svg>