<svg id="Layer_1" data-name="Layer 1" xmlns="http://www.w3.org/2000/svg" viewBox="0 0 64 64"><defs><style>.cls-1{fill:#ffffd0;}.cls-2{fill:#4b8178;}.cls-3{fill:#f4acb7;}</style></defs><rect class="cls-1" width="64" height="64"/><path class="cls-2" d="M8.62,58.73c-.3,0-.46-.09-.49-.26s.14-.26.49-.26a5.29,5.29,0,0,0,4-1.88Q14,54.61,14,50.48V14.17Q14,10,12.61,8.31a5.35,5.35,0,0,0-4-1.87c-.35,0-.51-.09-.49-.26s.19-.27.49-.27c1.31.11,2.76.15,4.37.15,2.2,0,4.14,0,5.79-.07s3-.1,4-.15l9-.15A29,29,0,0,1,42,7.26a13.51,13.51,0,0,1,6.14,4.21,9.52,9.52,0,0,1,2,5.92,11,11,0,0,1-3.24,8.29q-3.22,3.12-9.1,3.79,7.76.53,12.23,4a11.61,11.61,0,0,1,4.48,9.75,13.48,13.48,0,0,1-5.84,11.56Q42.86,59,32,59q-3.16,0-10.08-.15c-.91-.05-2.26-.1-4.07-.15s-3.41-.08-4.81-.08C11.38,58.58,9.93,58.63,8.62,58.73ZM29.84,29.25c3.77-.25,6.41-1.23,7.94-2.93s2.3-4.38,2.3-8-1-6.62-3-8.62a10.91,10.91,0,0,0-7.6-3.16l-4.14-.15c-.86-.05-1.39.11-1.62.45a4.33,4.33,0,0,0-.34,2.11V54.68a5.58,5.58,0,0,0,.53,2.93c.35.5,1.13.75,2.33.75H30.6q6.09,0,9.59-3.57t3.5-10.24Q43.69,30.23,30,30l-3.68-.08c-.26,0-.38-.07-.38-.22s.12-.25.38-.3Z"/><polyline class="cls-2" points="23.48 57.17 26.95 57.49 36.07 57.49 34.96 58.41 30.15 58.62 24.01 58.33 23.48 57.26"/><polygon class="cls-2" points="24.56 5.86 29.49 6.18 35.28 5.91 32.96 5.17 27.95 4.95 25.02 4.95 24.56 5.86"/><path class="cls-3" d="M9.93,57.64c-.31,0-.47-.08-.49-.26s.13-.26.49-.26a5.29,5.29,0,0,0,4-1.88q1.4-1.73,1.39-5.85V13.08c0-2.75-.47-4.7-1.43-5.85a5.32,5.32,0,0,0-4-1.88c-.36,0-.52-.09-.49-.26s.18-.26.49-.26c1.3.1,2.75.15,4.36.15,2.21,0,4.14,0,5.79-.08s3-.1,4-.15l9-.15A29,29,0,0,1,43.34,6.18a13.46,13.46,0,0,1,6.13,4.2,9.52,9.52,0,0,1,2,5.92,11,11,0,0,1-3.23,8.29Q45,27.71,39.12,28.38q7.76.53,12.23,4t4.48,9.75A13.48,13.48,0,0,1,50,53.67q-5.84,4.2-16.75,4.2-3.15,0-10.08-.15c-.9,0-2.26-.1-4.06-.15s-3.42-.08-4.82-.08C12.68,57.49,11.23,57.54,9.93,57.64ZM31.15,28.16c3.76-.25,6.4-1.23,7.94-2.93s2.29-4.37,2.29-8-1-6.62-3-8.62a10.86,10.86,0,0,0-7.6-3.15l-4.14-.15q-1.27-.08-1.62.45a4.44,4.44,0,0,0-.33,2.1V53.59a5.61,5.61,0,0,0,.52,2.93c.35.5,1.13.75,2.33.75H31.9q6.09,0,9.59-3.57T45,43.46Q45,29.13,31.3,28.91l-3.69-.08c-.25,0-.38-.07-.38-.22s.13-.25.38-.3Z"/></svg>