<svg id="Layer_1" data-name="Layer 1" xmlns="http://www.w3.org/2000/svg" viewBox="0 0 455.35 154.45"><defs><style>.cls-1{fill:#4b8178;}.cls-2{fill:#f4acb7;}</style></defs><path class="cls-1" d="M80.54,371.88c-.83,0-1.28-.25-1.34-.73s.37-.72,1.34-.72q7.21-.4,11-5.16t3.81-16.09V249.31q0-11.35-3.92-16.1t-10.93-5.16c-1,0-1.42-.23-1.34-.72s.51-.72,1.34-.72q5.35.42,12,.41,9.08,0,15.88-.2t10.94-.42l24.76-.41q16.71,0,28.06,4.33T189,241.88a26.31,26.31,0,0,1,5.47,16.3q0,14.24-8.87,22.8t-25,10.42q21.26,1.46,33.53,10.94t12.28,26.82q0,20.23-16,31.78T144.5,372.5q-8.66,0-27.65-.42c-2.47-.14-6.19-.27-11.14-.41s-9.36-.21-13.2-.21Q85.89,371.46,80.54,371.88Zm58.19-81.1q15.47-1,21.77-8t6.29-22.08q0-15.48-8.25-23.73t-20.84-8.67l-11.35-.41q-3.51-.21-4.44,1.24t-.93,5.77V360.73q0,6,1.45,8c1,1.38,3.09,2.06,6.39,2.06h12q16.71,0,26.31-9.8t9.59-28.16q0-39.42-37.55-40L129,292.64c-.69,0-1-.21-1-.62s.34-.69,1-.82Z" transform="translate(-79.19 -220.11)"/><path class="cls-1" d="M309.27,353.31a.68.68,0,0,1,.1,1A53,53,0,0,1,290,369.4a56.73,56.73,0,0,1-23.73,5.16,50.36,50.36,0,0,1-24.15-6,44.7,44.7,0,0,1-17.64-17q-6.5-11-6.5-25.48a50.31,50.31,0,0,1,7.12-26.21A52,52,0,0,1,244.37,281,53,53,0,0,1,271,274.07q16.1,0,26.83,8.77t10.73,23.83a48.8,48.8,0,0,1-2.48,14.65q-21.66.42-66.44,1.86a59.68,59.68,0,0,0,10.83,20.32,55,55,0,0,0,16.82,14,39.3,39.3,0,0,0,18.57,5q15.06,0,22.7-9.49Q308.75,352.89,309.27,353.31Zm-66-68.2q-6.09,7.11-6.09,21.36a63,63,0,0,0,2.07,15.26q11.76-.19,27.65-1l8.56-.41q4.44-.21,9-.21a14.64,14.64,0,0,0,1.85-7.63q0-6.81-3.82-15a46.25,46.25,0,0,0-9.69-13.83Q266.87,278,260.88,278,249.33,278,243.24,285.11Z" transform="translate(-79.19 -220.11)"/><path class="cls-1" d="M330.63,244.77a5.44,5.44,0,0,0-5.16-3.51,10.85,10.85,0,0,0-2.48.21h-.2c-.7,0-1.11-.21-1.24-.62s-.14-.69,0-.83q23.1-6,35.7-16.92h.41c1,0,1.37.49,1.24,1.45a147.48,147.48,0,0,0-2,17.33q-.53,9.08-.52,24.35V350q0,8.67,3,14.45a10.3,10.3,0,0,0,9.39,6c.69,0,1,.24,1,.72s-.34.73-1,.73q-3.92-.21-24.14-.21-20.43,0-24.35.21c-.83,0-1.17-.28-1-.83s.68-.82,1.65-.82q11.76,0,11.76-20.23l-.41-91.82Q332.28,248.28,330.63,244.77Z" transform="translate(-79.19 -220.11)"/><path class="cls-1" d="M390.67,244.77a5.42,5.42,0,0,0-5.16-3.51,10.85,10.85,0,0,0-2.48.21h-.2c-.69,0-1.1-.21-1.24-.62s-.14-.69,0-.83q23.12-6,35.7-16.92h.41c1,0,1.37.49,1.24,1.45a147.48,147.48,0,0,0-2,17.33q-.53,9.08-.52,24.35V350q0,8.67,3,14.45a10.31,10.31,0,0,0,9.39,6c.69,0,1,.24,1,.72s-.35.73-1,.73q-3.91-.21-24.14-.21-20.43,0-24.35.21c-.82,0-1.17-.28-1-.83s.69-.82,1.65-.82q11.76,0,11.76-20.23l-.41-91.82Q392.32,248.28,390.67,244.77Z" transform="translate(-79.19 -220.11)"/><path class="cls-1" d="M530.67,353.31a.69.69,0,0,1,.11,1,53.09,53.09,0,0,1-19.4,15.06,56.73,56.73,0,0,1-23.73,5.16,50.29,50.29,0,0,1-24.14-6,44.73,44.73,0,0,1-17.65-17q-6.5-11-6.5-25.48a50.4,50.4,0,0,1,7.12-26.21A52,52,0,0,1,465.78,281a52.93,52.93,0,0,1,26.62-6.91q16.08,0,26.82,8.77T530,306.67a48.8,48.8,0,0,1-2.48,14.65q-21.66.42-66.44,1.86a59.68,59.68,0,0,0,10.83,20.32,55.06,55.06,0,0,0,16.82,14,39.36,39.36,0,0,0,18.57,5q15.06,0,22.7-9.49C530.08,353,530.33,353,530.67,353.31Zm-66-68.2q-6.09,7.11-6.09,21.36a63,63,0,0,0,2.07,15.26q11.76-.19,27.65-1l8.56-.41q4.44-.21,9-.21a14.55,14.55,0,0,0,1.86-7.63q0-6.81-3.82-15a46.46,46.46,0,0,0-9.7-13.83Q488.27,278,482.28,278,470.73,278,464.64,285.11Z" transform="translate(-79.19 -220.11)"/><polyline class="cls-1" points="42.1 147.47 51.61 148.36 76.61 148.36 73.56 150.88 60.39 151.46 43.55 150.67 42.1 147.73"/><polygon class="cls-1" points="45.05 6.34 58.58 7.24 74.46 6.48 68.08 4.45 54.34 3.86 46.32 3.86 45.05 6.34"/><polygon class="cls-1" points="162.82 99.27 164.17 102.01 209.63 100.64 208.18 98.34 193.77 97.88 177.55 98.6 162.82 99.27"/><polygon class="cls-1" points="383.92 99.27 428.5 98.08 427.47 100.77 385.16 102.37 383.92 99.27"/><path class="cls-2" d="M84.11,368.88c-.82,0-1.27-.24-1.34-.72s.38-.72,1.34-.72q7.23-.42,11-5.16T99,346.18V246.31q0-11.34-3.92-16.09c-2.61-3.17-6.26-4.88-10.94-5.16-1,0-1.41-.24-1.34-.72s.52-.73,1.34-.73q5.37.42,12,.42,9.08,0,15.89-.21c4.54-.13,8.18-.27,10.94-.41l24.76-.41q16.71,0,28.06,4.33t16.82,11.55A26.37,26.37,0,0,1,198,255.19q0,14.24-8.88,22.8t-25,10.42q21.24,1.44,33.53,10.93T210,326.17q0,20.22-16,31.78T148.08,369.5q-8.67,0-27.65-.41-3.72-.21-11.14-.42t-13.21-.2Q89.48,368.47,84.11,368.88Zm58.19-81.09q15.48-1,21.77-8.05t6.3-22.08q0-15.48-8.26-23.73t-20.84-8.66l-11.35-.42q-3.51-.19-4.43,1.24t-.93,5.78V357.74q0,6,1.44,8.05c1,1.37,3.1,2.06,6.4,2.06h12q16.71,0,26.31-9.8t9.59-28.17q0-39.4-37.55-40l-10.12-.2c-.69,0-1-.21-1-.62s.34-.69,1-.83Z" transform="translate(-79.19 -220.11)"/><path class="cls-2" d="M312.84,350.31a.68.68,0,0,1,.11,1,52.93,52.93,0,0,1-19.4,15.07,56.81,56.81,0,0,1-23.73,5.15,50.24,50.24,0,0,1-24.14-6,44.61,44.61,0,0,1-17.64-17q-6.51-11-6.5-25.49a50.27,50.27,0,0,1,7.12-26.2A51.78,51.78,0,0,1,248,278a53,53,0,0,1,26.62-6.92q16.1,0,26.82,8.77t10.73,23.84a48.82,48.82,0,0,1-2.47,14.65q-21.67.41-66.45,1.85A59.67,59.67,0,0,0,254,340.51a55.14,55.14,0,0,0,16.81,14,39.38,39.38,0,0,0,18.58,5.06q15.06,0,22.69-9.5Q312.33,349.91,312.84,350.31Zm-66-68.2q-6.09,7.13-6.09,21.36a63.5,63.5,0,0,0,2.06,15.27q11.76-.21,27.65-1l8.57-.42q4.42-.19,9-.2a14.59,14.59,0,0,0,1.86-7.64q0-6.81-3.82-15a46.28,46.28,0,0,0-9.7-13.82Q270.44,275,264.46,275,252.9,275,246.82,282.11Z" transform="translate(-79.19 -220.11)"/><path class="cls-2" d="M334.2,241.77a5.43,5.43,0,0,0-5.16-3.5,11.49,11.49,0,0,0-2.47.2h-.21c-.69,0-1.1-.2-1.24-.62s-.14-.68,0-.82q23.11-6,35.7-16.92h.41c1,0,1.38.48,1.24,1.44a149.63,149.63,0,0,0-2,17.33Q360,248,360,263.23V347q0,8.67,3,14.44a10.3,10.3,0,0,0,9.39,6c.68,0,1,.24,1,.72s-.35.72-1,.72q-3.93-.21-24.15-.21-20.42,0-24.35.21c-.82,0-1.17-.28-1-.82s.69-.83,1.65-.83q11.78,0,11.77-20.22l-.42-91.82Q335.85,245.28,334.2,241.77Z" transform="translate(-79.19 -220.11)"/><path class="cls-2" d="M394.25,241.77a5.44,5.44,0,0,0-5.16-3.5,11.53,11.53,0,0,0-2.48.2h-.21c-.69,0-1.1-.2-1.23-.62s-.14-.68,0-.82q23.1-6,35.69-16.92h.42q1.44,0,1.23,1.44a151.86,151.86,0,0,0-2,17.33Q420,248,420,263.23V347q0,8.67,3,14.44a10.3,10.3,0,0,0,9.39,6c.69,0,1,.24,1,.72s-.34.72-1,.72q-3.93-.21-24.14-.21-20.43,0-24.35.21c-.83,0-1.17-.28-1-.82s.68-.83,1.65-.83q11.76,0,11.76-20.22l-.41-91.82C395.9,248.58,395.34,244.11,394.25,241.77Z" transform="translate(-79.19 -220.11)"/><path class="cls-2" d="M534.25,350.31a.68.68,0,0,1,.1,1A52.89,52.89,0,0,1,515,366.41a56.87,56.87,0,0,1-23.73,5.15,50.25,50.25,0,0,1-24.15-6,44.61,44.61,0,0,1-17.64-17q-6.49-11-6.5-25.49a50.27,50.27,0,0,1,7.12-26.2A51.85,51.85,0,0,1,469.35,278,53,53,0,0,1,496,271.07q16.09,0,26.83,8.77t10.73,23.84a48.85,48.85,0,0,1-2.48,14.65q-21.66.41-66.44,1.85a59.64,59.64,0,0,0,10.83,20.33,55.05,55.05,0,0,0,16.82,14,39.32,39.32,0,0,0,18.57,5.06q15.06,0,22.7-9.5Q533.72,349.91,534.25,350.31Zm-66-68.2q-6.09,7.13-6.09,21.36a63.5,63.5,0,0,0,2.06,15.27q11.78-.21,27.65-1l8.57-.42c2.95-.13,5.95-.2,9-.2a14.59,14.59,0,0,0,1.86-7.64q0-6.81-3.82-15a46.08,46.08,0,0,0-9.69-13.82Q491.84,275,485.86,275,474.29,275,468.22,282.11Z" transform="translate(-79.19 -220.11)"/></svg>